HIERARCHY
ROOT Hips
{
  OFFSET 40.9192 92.6879 18.85
  CHANNELS 6 Xposition Yposition Zposition Zrotation Xrotation Yrotation
  JOINT LeftUpLeg
  {
    OFFSET 8.64259 1.95398 -2.38835
    CHANNELS 3 Zrotation Xrotation Yrotation
    JOINT LeftLeg
    {
      OFFSET 43.7702 0 0
      CHANNELS 3 Zrotation Xrotation Yrotation
      JOINT LeftFoot
      {
        OFFSET 40.6238 0 0
        CHANNELS 3 Zrotation Xrotation Yrotation
        JOINT LeftToeBase
        {
          OFFSET 12.7242 0 0
          CHANNELS 3 Zrotation Xrotation Yrotation
          End Site
          {
            OFFSET 0 0 0
          }
        }
      }
    }
  }
  JOINT RightUpLeg
  {
    OFFSET -8.2249 1.95398 -2.59336
    CHANNELS 3 Zrotation Xrotation Yrotation
    JOINT RightLeg
    {
      OFFSET 43.5653 0 0
      CHANNELS 3 Zrotation Xrotation Yrotation
      JOINT RightFoot
      {
        OFFSET 40.6238 0 0
        CHANNELS 3 Zrotation Xrotation Yrotation
        JOINT RightToeBase
        {
          OFFSET 12.7242 0 0
          CHANNELS 3 Zrotation Xrotation Yrotation
          End Site
          {
            OFFSET 0 0 0
          }
        }
      }
    }
  }
  JOINT Spine
  {
    OFFSET 0.165834 0.87714 6.61349
    CHANNELS 3 Zrotation Xrotation Yrotation
    JOINT Spine1
    {
      OFFSET 7.38963 1.71661e-005 0
      CHANNELS 3 Zrotation Xrotation Yrotation
      JOINT Spine2
      {
        OFFSET 11.9445 1.14441e-005 0
        CHANNELS 3 Zrotation Xrotation Yrotation
        JOINT Spine3
        {
          OFFSET 14.7254 4.19617e-005 0
          CHANNELS 3 Zrotation Xrotation Yrotation
          JOINT Spine4
          {
            OFFSET 10.9679 0 0
            CHANNELS 3 Zrotation Xrotation Yrotation
            JOINT RightShoulder
            {
              OFFSET 2.46616 -1.6653 3.69651
              CHANNELS 3 Zrotation Xrotation Yrotation
              JOINT RightArm
              {
                OFFSET 13.0012 0 0
                CHANNELS 3 Zrotation Xrotation Yrotation
                JOINT RightForeArm
                {
                  OFFSET 28.7848 1.52588e-005 0
                  CHANNELS 3 Zrotation Xrotation Yrotation
                  JOINT RightHand
                  {
                    OFFSET 26.5688 1.52588e-005 0
                    CHANNELS 3 Zrotation Xrotation Yrotation
                    End Site
                    {
                      OFFSET 0 0 0
                    }
                  }
                }
              }
            }
            JOINT LeftShoulder
            {
              OFFSET 2.38034 -1.29275 -3.7523
              CHANNELS 3 Zrotation Xrotation Yrotation
              JOINT LeftArm
              {
                OFFSET 16.3182 6.10351e-005 0
                CHANNELS 3 Zrotation Xrotation Yrotation
                JOINT LeftForeArm
                {
                  OFFSET 27.0901 0 0
                  CHANNELS 3 Zrotation Xrotation Yrotation
                  JOINT LeftHand
                  {
                    OFFSET 24.5451 1.52588e-005 0
                    CHANNELS 3 Zrotation Xrotation Yrotation
                    End Site
                    {
                      OFFSET 0 0 0
                    }
                  }
                }
              }
            }
            JOINT Neck
            {
              OFFSET 5.0226 -0.0266342 0
              CHANNELS 3 Zrotation Xrotation Yrotation
              JOINT Head
              {
                OFFSET 6.69363 2.86102e-005 0
                CHANNELS 3 Zrotation Xrotation Yrotation
                End Site
                {
                  OFFSET 0 0 0
                }
              }
            }
          }
        }
      }
    }
  }
}
MOTION
Frames:	15
Frame Time:	0.0416667
-272.741 95.2909 -277.09 92.899 -48.805 92.3382 -171.868 7.42146 90.684 -25.7928 19.2855 -2.33389 60.0074 -1.39443 10.5051 44.353 12.6987 4.29139 177.622 12.894 91.8404 -36.7352 -9.1167 -3.22367 59.5641 -1.55494 -0.74197 55.3629 -1.67053 -17.7102 0.0955906 7.64787 -89.8812 11.5779 0.245777 0.211353 -0.093065 0.254854 0.20033 -22.6282 0.170902 0.275455 -2.61554 0.170899 0.275447 95.0137 -47.8816 -93.4036 30.8093 -4.56025 9.9089 -11.0486 -36.4502 -61.6768 -10.8642 -3.84643 29.6293 -94.2067 -45.6741 71.2016 -22.6431 12.0869 0.413064 3.42267 7.47276 -35.8297 11.4054 0.465965 0.233754 8.51654 -10.4488 6.87823 -0.854769 -11.7664 -6.80844 
-272.548 95.2858 -277.959 93.8534 -45.4609 93.2304 -171.918 7.47248 90.8082 -26.5711 20.9501 -2.18514 61.091 -0.477915 9.08825 42.7423 11.3815 4.57905 176.821 9.84114 91.2413 -33.1855 -10.8858 -2.78249 62.287 -2.42931 -1.32241 46.6432 -0.364643 -13.2306 -0.295212 7.60536 -89.9439 11.6635 -0.561013 0.170191 -0.00728068 -0.552966 0.194715 -22.5435 -0.586219 -0.00628609 -2.53086 -0.586223 -0.00628886 95.4099 -48.5139 -92.6871 29.7737 -3.66159 8.00781 -27.4395 -39.5251 -70.2619 6.40189 0.123517 13.328 -95.0531 -47.157 70.3646 -21.7536 12.1142 0.91208 1.84105 5.81779 -34.2314 9.08733 0.314554 -0.345516 7.80544 -9.59436 7.38135 -0.917374 -10.9821 -6.77214 
-272.429 95.2235 -278.204 92.7458 -44.6296 91.6483 -171.707 7.64205 90.0569 -25.3142 21.1462 -2.90645 61.6262 0.280694 8.89878 40.6131 9.54017 3.9322 175.791 2.39652 90.433 -19.0696 -9.47588 -2.3978 71.1339 -5.91494 -3.11687 31.7449 0.44072 -7.35837 -0.302733 7.37605 -89.8459 12.1229 -0.528907 0.365164 0.451986 -0.512316 0.388079 -22.0839 -0.614201 0.189318 -2.07125 -0.614194 0.189317 95.2654 -48.4602 -92.9238 31.2794 -4.48828 7.16085 -17.0389 -31.7619 -62.7821 -2.37742 -1.19499 16.2748 -95.5922 -48.0749 69.8396 -21.3662 12.6212 0.192736 1.00949 7.04305 -30.0477 8.078 0.218568 -0.981162 7.33015 -9.26598 7.3267 -1.60434 -10.5724 -6.31092 
-272.104 95.6268 -278.842 93.0294 -47.328 92.8073 -170.761 5.93107 90.8887 -22.1483 18.1022 -3.59202 62.2798 1.01646 7.44945 40.3886 9.15323 0.819174 174.249 -0.17879 90.0442 -13.1731 -10.4725 -1.23579 68.6141 -4.34085 -2.32394 30.201 0.263384 -3.58004 0.102277 7.31406 -89.9491 12.2458 0.227458 0.076136 0.574865 0.230584 0.0660479 -21.9603 0.194057 0.140978 -1.94767 0.19406 0.140972 95.0053 -46.9617 -93.5529 32.7043 -6.43002 4.95345 -7.35963 -26.0492 -55.1182 -6.3803 -1.55404 16.0092 -95.4591 -49.6285 70.5173 -22.0852 12.2038 0.277541 1.71519 9.25574 -28.2158 7.19665 0.383336 1.28887 7.91892 -8.46401 7.72311 -2.14628 -9.86015 -6.27872 
-271.756 95.6149 -279.542 92.3621 -49.7977 92.9049 -170.06 5.41144 90.8966 -20.3707 15.8016 -4.35012 63.92 2.58609 8.17651 37.2772 6.6927 0.861904 173.868 -0.128948 89.7734 -11.2 -13.4299 -1.01235 67.4471 -3.83304 -2.09411 29.9807 0.208981 -2.76195 0.4186 7.26262 -90.0404 12.3495 0.812805 -0.172769 0.678827 0.804391 -0.20838 -21.8584 0.827146 0.0795191 -1.84571 0.827144 0.0795159 95.0372 -45.8236 -93.6737 32.82 -6.92141 2.79355 -8.62468 -26.5299 -52.9843 -4.4702 -1.13242 13.0101 -95.3543 -50.2498 70.8592 -24.605 12.5549 2.09213 1.36028 8.47885 -28.458 9.18136 0.397803 0.454196 9.89505 -6.68072 6.79565 -2.74362 -7.9599 -3.35322 
-271.464 95.5764 -280.252 92.47 -50.0018 92.4722 -170.116 4.26525 89.9382 -18.3993 14.3506 -4.74578 65.2626 4.44867 8.40641 34.8253 4.74249 1.03371 174.259 1.02412 89.497 -12.9959 -14.1872 -1.90542 68.5577 -4.36114 -2.35365 29.1838 0.305854 -4.64074 0.378689 7.31763 -90.003 12.2392 0.751359 -0.0902167 0.568421 0.746648 -0.123206 -21.9684 0.743727 0.139773 -1.9558 0.743736 0.139781 94.8552 -46.4327 -93.8752 31.4605 -7.3781 2.22576 -9.81662 -24.7191 -53.8902 -2.61514 -0.811192 11.0598 -95.3871 -50.4924 70.8842 -26.4284 14.8117 3.58009 2.28187 11.9127 -29.6397 10.0938 0.826549 3.95362 11.6999 -3.47898 6.24846 -4.26473 -4.76007 -2.72453 
-270.727 95.3603 -280.69 90.7769 -48.463 90.5558 -170.816 3.59134 88.4793 -15.3777 15.9054 -4.93821 65.055 6.31297 11.9148 34.5822 4.54491 1.19273 173.996 3.11048 88.4968 -15.7006 -13.3497 -2.04537 70.3597 -5.07572 -2.65707 28.4986 0.385933 -5.94787 0.258231 7.30563 -89.9835 12.2628 0.521018 -0.0255096 0.591933 0.519398 -0.0484266 -21.944 0.504588 0.132256 -1.93135 0.504607 0.132261 95.0711 -46.0299 -93.587 32.1295 -6.09035 2.78912 -12.6346 -21.8151 -54.7573 -0.679979 -0.596762 11.7442 -96.3819 -50.6489 69.4783 -26.9516 16.9462 3.26613 0.421498 11.3785 -27.9708 8.55139 0.507425 1.93701 12.6381 -1.51975 5.30499 -4.077 -2.67276 -1.62659 
-270.335 94.7981 -281.007 92.6233 -47.8238 92.6523 -170.122 3.12965 89.1644 -17.2613 16.9657 -5.28673 67.6653 9.54965 14.638 33.4508 3.67445 0.167283 176.425 5.36664 90.0581 -23.017 -8.88823 -3.48995 70.9596 -5.52934 -2.85006 32.3031 0.398376 -6.66614 0.267454 7.50348 -90.0192 11.8672 0.522779 -0.0944681 0.196359 0.518118 -0.117385 -22.3396 0.527007 0.0670205 -2.32698 0.527018 0.0670242 95.0081 -46.666 -93.5931 31.2413 -6.67201 3.47705 -11.6684 -21.4588 -51.7533 -1.38078 -0.615766 8.98608 -95.6489 -50.3721 70.4645 -26.9711 16.6704 3.00832 1.51112 12.4402 -29.5896 11.2819 1.05371 5.08981 12.0376 -0.803603 2.60019 -2.71074 -1.34641 0.228206 
-269.636 94.1272 -280.969 93.467 -47.5806 93.2461 -169.847 2.74293 89.0032 -18.8752 16.7357 -5.53413 70.4636 12.6168 15.1207 33.6601 3.77247 2.23802 178.413 11.057 91.0794 -34.5774 -4.57878 -4.22732 70.8451 -5.82197 -3.02002 36.4821 0.358979 -8.73285 0.260799 7.62732 -89.9472 11.6192 0.543607 0.0489034 -0.0516108 0.545243 0.0249221 -22.5876 0.503783 0.210026 -2.57493 0.503778 0.210022 94.9295 -47.6084 -93.5778 30.6967 -6.77047 4.88422 -12.9981 -23.7525 -48.5567 -2.74232 -0.655218 4.49673 -95.8279 -50.102 70.1195 -25.7494 16.6073 2.98195 1.87459 10.8921 -32.3851 12.3504 1.19861 5.58372 10.6871 -0.533215 0.563758 -1.19555 -0.59975 1.18428 
-268.287 93.8643 -280.666 94.6228 -45.2416 94.68 -170.184 1.21986 89.3082 -19.2151 18.0429 -4.82456 71.2506 14.233 15.8011 35.3268 5.1235 3.19833 177.331 15.8426 91.8394 -42.1594 -2.35627 -2.72387 70.6638 -5.23483 -2.72239 38.1608 0.327731 -7.7596 -0.0461781 7.78297 -89.9943 11.3087 -0.0892496 0.0198995 -0.362285 -0.088276 0.0238017 -22.8974 -0.0911063 -0.00784094 -2.88474 -0.0910995 -0.00784597 95.0182 -48.0901 -93.3662 30.8993 -6.52743 6.36214 -11.4468 -25.467 -43.7415 -5.11211 -0.769752 3.95618 -96.0611 -49.617 69.6265 -24.4297 16.497 2.82598 1.87351 8.6095 -35.4222 12.4447 1.05916 4.41928 9.02192 0.862844 -0.0183505 -1.0387 0.865627 0.454708 
-266.489 93.781 -279.887 93.3649 -43.6694 93.8315 -170.683 0.469873 88.9862 -17.3977 18.8154 -4.42749 72.151 15.115 14.0653 33.2147 3.26127 5.86583 176.693 20.0366 92.3043 -40.1266 -2.23479 -1.5858 69.9445 -4.75526 -2.50358 39.617 0.270449 -8.98199 -0.263917 7.74264 -90.0673 11.3886 -0.556505 -0.0790234 -0.282195 -0.559431 -0.0544648 -22.8183 -0.507029 -0.242629 -2.80561 -0.507011 -0.24263 95.6279 -48.9544 -92.2855 29.816 -5.87823 8.29417 -11.9763 -25.5308 -43.3919 -5.56986 -0.79155 3.48262 -97.0019 -49.7382 68.2817 -23.0832 15.6405 1.90276 2.4764 7.14422 -38.3118 11.8031 0.805457 2.85425 7.30461 1.19887 -0.569225 -0.806334 1.3475 1.86334 
-264.522 93.5833 -278.691 92.0637 -44.1583 92.3033 -170.987 -1.36645 88.0399 -16.1364 18.2973 -4.62051 72.2923 15.2455 13.8191 31.1478 1.39673 6.70878 176.338 24.1226 92.2464 -35.0137 -4.55348 -0.872388 69.3672 -4.29175 -2.26931 39.4792 0.265145 -9.26591 -0.39062 7.65331 -89.9275 11.568 -0.743105 0.221416 -0.102756 -0.732635 0.253907 -22.6395 -0.775285 -0.0121668 -2.62691 -0.775301 -0.012168 95.1434 -50.8536 -92.7823 28.7653 -5.04807 10.2066 -12.4782 -21.4597 -45.0037 -0.296705 -0.504628 7.61524 -95.6108 -47.9198 69.7602 -23.291 15.0099 0.0772121 3.57614 7.38463 -39.6738 11.6194 0.716555 2.23584 5.82935 1.56375 -2.38873 -0.383573 2.05891 3.33699 
-262.474 93.1929 -276.631 91.6778 -45.0099 92.1265 -170.317 -2.35974 88.5492 -17.192 18.5789 -5.00056 72.7526 15.4752 14.5866 33.1126 3.17651 5.80184 176.403 25.7896 93.7075 -27.2387 -3.57814 0.167065 68.8028 -4.0796 -2.18247 38.7638 0.325095 -7.58779 -0.393563 7.80883 -90.0291 11.2565 -0.796728 0.0209946 -0.414184 -0.795046 0.0560349 -22.9512 -0.766226 -0.219445 -2.93854 -0.766218 -0.219445 95.3627 -50.8699 -92.4451 28.3742 -4.03249 10.0634 3.91078 -8.5411 -38.189 1.35331 0.109759 10.5769 -98.7015 -48.5219 65.3642 -17.3149 20.6264 2.11841 0.673109 3.26574 -48.0645 13.0368 1.49672 7.32227 6.35355 1.78483 -2.04873 0.468807 2.28009 3.84588 
-259.577 92.7307 -274.014 92.2879 -44.2757 91.9545 -170.404 -4.28304 88.4561 -19.4101 19.47 -4.72546 72.0486 14.3698 14.5684 35.9758 5.65037 3.77075 175.409 25.2037 93.9289 -20.3458 -1.90147 1.56358 69.0541 -4.16666 -2.23954 39.3302 0.309529 -7.79868 -0.590305 7.98328 -90.035 10.9081 -1.19141 0.0423784 -0.762282 -1.18838 0.0947675 -23.3016 -1.14905 -0.3177 -3.28896 -1.14905 -0.317697 95.3366 -51.454 -92.4092 27.2929 -3.56082 10.0713 5.55895 -7.13338 -37.1712 3.03937 0.374253 9.99317 -97.6673 -48.3712 66.8411 -14.9779 22.7818 -3.90843 -4.5707 1.14725 -41.9179 19.9955 1.29812 2.52932 6.37945 1.88783 -2.57654 1.4299 2.56056 4.90504 
-255.764 92.0505 -270.385 91.7365 -42.9148 90.8841 -170.812 -5.25856 88.5513 -23.1764 21.1641 -3.99322 69.8782 11.8382 13.7822 41.9362 10.4428 1.46895 175.272 25.1906 93.7537 -19.4388 -2.12412 1.64408 69.1067 -4.22207 -2.27029 41.7431 0.267872 -7.76252 -0.805024 8.01464 -90.0599 10.8453 -1.63049 0.033078 -0.824593 -1.62747 0.104817 -23.3675 -1.56503 -0.458605 -3.35484 -1.56504 -0.458611 95.5821 -51.8541 -91.9854 26.4656 -3.48283 10.0541 4.79931 -8.57849 -36.328 2.67789 0.306776 11.063 -98.143 -47.9895 66.0006 -17.2435 18.8441 -5.34455 -0.822855 5.449 -37.9303 16.9281 1.14592 3.03158 7.00994 1.63118 -3.09958 1.30787 2.44964 5.6969 
